<svg xmlns="http://www.w3.org/2000/svg" viewBox="0 0 5000 5000"><defs><path id="d" d="m337 233-9 60-164-21 5-60 168 21z"/><path id="b" d="m282 416-123-23 10-291 172 5-59 309z"/><path id="a" d="m120 155 27-29 227 227-65 47-189-245z"/><path id="e" d="m172 186 47-32 120 145-89 52-78-165z"/><path id="f" d="m176 290 3-85 155 45-6 31-152 9z"/><path id="c" d="m325 146 44 57-223 122-23-59 202-120z"/></defs><path fill="#3c78f0" d="M0 0h5000v5000H0z"/><g fill="#6e9bf5"><use x="-17" y="-215" href="#a"/><use x="-128" y="836" href="#b"/><use x="-92" y="1485" href="#c"/><use x="-45" y="1752" href="#d"/><use x="-225" y="2387" href="#b"/><use x="60" y="3297" href="#b"/><use x="-51" y="4107" href="#e"/><use x="-200" y="4515" href="#b"/><use x="-229" y="4916" href="#b"/><use x="568" y="117" href="#a"/><use x="895" y="793" href="#c"/><use x="1118" y="1430" href="#e"/><use x="776" y="2234" href="#d"/><use x="809" y="2468" href="#d"/><use x="670" y="3538" href="#a"/><use x="744" y="4063" href="#e"/><use x="981" y="4285" href="#b"/><use x="778" y="5164" href="#a"/><use x="1423" y="-19" href="#c"/><use x="1691" y="920" href="#c"/><use x="1338" y="1536" href="#e"/><use x="1564" y="1931" href="#c"/><use x="1417" y="2941" href="#f"/><use x="1697" y="3544" href="#d"/><use x="1396" y="4152" href="#d"/><use x="1263" y="4585" href="#c"/><use x="1637" y="5415" href="#a"/><use x="2132" y="370" href="#c"/><use x="2293" y="944" href="#b"/><use x="2131" y="1271" href="#c"/><use x="1899" y="1883" href="#b"/><use x="1910" y="2730" href="#c"/><use x="2093" y="3290" href="#b"/><use x="2275" y="4017" href="#f"/><use x="1990" y="4742" href="#d"/><use x="2022" y="5047" href="#e"/><use x="2525" y="-102" href="#a"/><use x="2912" y="906" href="#b"/><use x="2538" y="1447" href="#b"/><use x="2893" y="1993" href="#c"/><use x="2928" y="2544" href="#f"/><use x="2873" y="3326" href="#c"/><use x="2770" y="3896" href="#e"/><use x="2844" y="4243" href="#c"/><use x="3001" y="5203" href="#c"/><use x="3239" y="-66" href="#e"/><use x="3731" y="946" href="#c"/><use x="3807" y="1464" href="#a"/><use x="3322" y="2025" href="#e"/><use x="3228" y="2540" href="#d"/><use x="3321" y="3237" href="#a"/><use x="3522" y="3927" href="#a"/><use x="3801" y="4266" href="#c"/><use x="3482" y="5175" href="#e"/><use x="4223" y="-40" href="#f"/><use x="4224" y="542" href="#d"/><use x="4354" y="1117" href="#a"/><use x="4329" y="2005" href="#f"/><use x="4112" y="2691" href="#c"/><use x="4203" y="3137" href="#b"/><use x="4512" y="3770" href="#e"/><use x="3917" y="4252" href="#a"/><use x="4007" y="5196" href="#d"/><use x="4568" y="-60" href="#f"/><use x="5218" y="625" href="#e"/><use x="4907" y="1620" href="#c"/><use x="4607" y="1765" href="#c"/><use x="4605" y="2533" href="#b"/><use x="4633" y="3085" href="#d"/><use x="4956" y="3835" href="#e"/><use x="5004" y="4752" href="#c"/><use x="4875" y="5096" href="#d"/></g></svg>