<svg xmlns="http://www.w3.org/2000/svg" viewBox="0 0 5000 5000"><defs><path id="g" d="M217 167c33-11 68-5 90 14s34 46 31 80c-5 34-28 62-55 72-33 11-68 5-90-14s-34-46-31-80c5-34 28-62 55-72z"/><path id="h" d="m269 103 101 234-258-33 157-201z"/><path id="n" d="M225 448 52 225 275 52l173 223-223 173z"/><path id="i" d="m289 151 67 106-80 96-115-46 7-125 121-31z"/><path id="b" d="m80 317 29-184 164-65 147 115-29 184-164 65L80 317z"/><path id="j" d="M266 165c33 7 59 31 67 58s4 55-16 82c-23 26-55 36-83 30-33-7-59-31-67-58s-4-55 16-82c23-26 55-36 83-30z"/><path id="f" d="m94 151 318 10-174 274L94 151z"/><path id="d" d="m334 98 68 236-236 68-68-236 236-68z"/><path id="c" d="m320 73 120 189-143 172-207-82 14-223 216-56z"/><path id="k" d="m103 250 76-129h142l76 129-76 129H179l-76-129z"/><path id="e" d="M97 250c2-60 35-111 79-134 44-24 94-25 148 0 51 31 80 84 79 134-2 60-35 111-79 134-44 24-94 25-148 0-51-31-80-84-79-134z"/><path id="m" d="m332 191-69 159-104-143 173-16z"/><path id="a" d="m354 209-63 145-145-63 63-145 145 63z"/><path id="o" d="m157 378-57-177L250 92l150 109-57 177H157z"/><path id="l" d="m101 142 172-75 143 105-17 186-172 75L84 328l17-186z"/></defs><path fill="#3c78f0" d="M0 0h5000v5000H0z"/><g fill="#6e9bf5"><use x="286" y="-178" href="#a"/><use x="87" y="1048" href="#b"/><use x="98" y="1450" href="#b"/><use x="214" y="2230" href="#c"/><use x="-110" y="2667" href="#d"/><use x="324" y="3575" href="#c"/><use x="393" y="4072" href="#e"/><use x="116" y="4922" href="#f"/><use x="-17" y="5922" href="#g"/><use x="562" y="-227" href="#h"/><use x="786" y="898" href="#e"/><use x="410" y="1446" href="#i"/><use x="323" y="1821" href="#a"/><use x="1182" y="2953" href="#j"/><use x="928" y="3427" href="#k"/><use x="788" y="4086" href="#e"/><use x="388" y="5009" href="#l"/><use x="537" y="5315" href="#j"/><use x="1345" y="479" href="#j"/><use x="1133" y="734" href="#c"/><use x="1461" y="1508" href="#l"/><use x="1289" y="2351" href="#l"/><use x="1603" y="2510" href="#h"/><use x="1321" y="3413" href="#i"/><use x="1162" y="3787" href="#l"/><use x="1571" y="4949" href="#d"/><use x="1559" y="5119" href="#h"/><use x="1903" y="107" href="#f"/><use x="2259" y="1067" href="#c"/><use x="1900" y="1415" href="#m"/><use x="2314" y="1941" href="#h"/><use x="2035" y="2515" href="#b"/><use x="2378" y="3872" href="#d"/><use x="1980" y="3943" href="#b"/><use x="2203" y="4794" href="#d"/><use x="2302" y="5050" href="#m"/><use x="2969" y="80" href="#g"/><use x="3183" y="342" href="#a"/><use x="2553" y="1816" href="#g"/><use x="2764" y="2094" href="#f"/><use x="3054" y="3022" href="#g"/><use x="2780" y="3863" href="#k"/><use x="2776" y="3956" href="#l"/><use x="2980" y="4919" href="#d"/><use x="3105" y="5330" href="#c"/><use x="3566" y="-19" href="#k"/><use x="3396" y="359" href="#c"/><use x="3191" y="1259" href="#b"/><use x="3763" y="2179" href="#n"/><use x="3274" y="2980" href="#j"/><use x="3552" y="3363" href="#m"/><use x="3811" y="3855" href="#i"/><use x="3417" y="4763" href="#o"/><use x="3387" y="5771" href="#n"/><use x="4215" y="351" href="#i"/><use x="4198" y="709" href="#f"/><use x="4212" y="1014" href="#n"/><use x="3991" y="2373" href="#c"/><use x="3816" y="2540" href="#a"/><use x="4507" y="3735" href="#o"/><use x="4353" y="4042" href="#k"/><use x="4538" y="5106" href="#o"/><use x="4358" y="5315" href="#c"/><use x="4934" y="271" href="#c"/><use x="4760" y="570" href="#h"/><use x="4711" y="1601" href="#l"/><use x="4932" y="2174" href="#i"/><use x="4819" y="3009" href="#h"/><use x="5084" y="3104" href="#k"/><use x="4768" y="4278" href="#d"/><use x="4917" y="4828" href="#b"/><use x="4918" y="5039" href="#d"/></g></svg>