<svg xmlns="http://www.w3.org/2000/svg" viewBox="0 0 1024 1024"><path fill="#3c78f0" d="M262 87h500c96.65 0 175 78.35 175 175v500c0 96.65-78.35 175-175 175H262c-96.65 0-175-78.35-175-175V262c0-96.65 78.35-175 175-175Z"/><path fill="#fff" d="M294.592 399.96h16.128c6.485 0 11.861-.896 16.128-2.688 4.267-1.792 7.936-4.651 11.008-8.576L440 259.416c4.267-5.461 8.747-9.259 13.44-11.392 4.693-2.133 10.624-3.2 17.792-3.2h59.392L405.952 398.68c-7.339 9.387-14.933 16.043-22.784 19.968 5.632 2.048 10.709 4.907 15.232 8.576 4.523 3.669 8.832 8.491 12.928 14.464L539.84 615h-60.672c-8.192 0-14.293-1.152-18.304-3.456-4.011-2.304-7.381-5.675-10.112-10.112L346.048 464.728c-3.243-4.608-6.997-7.851-11.264-9.728-4.267-1.877-10.411-2.816-18.432-2.816h-21.76V615h-68.864V244.824h68.864V399.96Zm341.848 89.648v109.568h138.752v55.04H636.44V805h-69.12V434.824h233.472v54.784H636.44Z"/></svg>