<svg xmlns="http://www.w3.org/2000/svg" viewBox="0 0 1022 1022"><path fill="#3c78f0" d="M451.78 76.943c28.256 74.944 28.256 74.944 76.958 76.817 48.703 1.873 48.703 1.873 60.675-5.973 11.971-7.845 11.971-7.845 60.028-76.816C697.499 2 697.499 2 560.511 2 423.524 2 423.524 2 451.78 76.943Zm474.77 5.39c17.066 80.333 17.066 80.333 56.258 76.447C1022 154.893 1022 154.893 1022 78.446 1022 2 1022 2 965.742 2c-56.257 0-56.257 0-39.192 80.333ZM804.205 101.28c80.425 99.28 80.425 99.28 108.006 80.96 27.582-18.321 27.582-18.321 10.383-99.28C905.395 2 905.395 2 814.588 2c-90.808 0-90.808 0-10.383 99.28ZM241.382 83.354c31.978 81.353 31.978 81.353 103.682 100.28 71.704 18.926 71.704 18.926 101.449-5.751 29.745-24.678 29.745-24.678 1.241-100.28C419.249 2 419.249 2 314.326 2c-104.922 0-104.922 0-72.944 81.354ZM67.709 284.414c65.709.504 65.709.504 133.747-59.053 68.038-59.557 68.038-59.557 35.844-141.459C205.106 2 205.106 2 103.553 2 2 2 2 2 2 142.955c0 140.956 0 140.956 65.709 141.459Zm661.194-83.006c123.13 60.771 123.13 60.771 138.039 31.423 14.908-29.348 14.908-29.348-66.701-130.089C718.632 2 718.632 2 710.503 2c-8.129 0-8.129 0-56.429 69.319-48.3 69.319-48.3 69.319 74.829 130.089Zm-116.35 63.654c32.204 106.553 32.204 106.553 135.019 57.187s102.815-49.366 103.04-52.783c.225-3.417.225-3.417-123.722-64.591-123.946-61.173-123.946-61.173-135.243-53.77-11.297 7.404-11.297 7.404 20.906 113.957Zm-403.141 74.716c72.058 52.991 72.058 52.991 128.191 28.281 56.133-24.709 56.133-24.709 66.765-93.269C415 206.231 415 206.231 343.694 187.409c-71.307-18.821-71.307-18.821-138.823 40.279-67.517 59.1-67.517 59.1 4.541 112.09Zm674.187-12.449c29.259 53.597 29.259 53.597 83.83 58.642C1022 391.015 1022 391.015 1022 274.964c0-116.052 0-116.052-39.638-112.121-39.638 3.932-39.638 3.932-68.117 22.848-28.479 18.916-28.479 18.916-43.917 49.306-15.439 30.39-15.439 30.39-15.713 34.563-.275 4.172-.275 4.172 28.984 57.769Zm-414.667 83.267c71.249 66.595 71.249 66.595 110.612 47.031 39.362-19.564 39.362-19.564 50.616-51.406 11.254-31.841 11.254-31.841-21.203-139.231-32.456-107.391-32.456-107.391-81.046-109.259-48.59-1.869-48.59-1.869-78.694 23.106s-30.104 24.975-40.819 94.069C397.683 344 397.683 344 468.932 410.596Zm225.544 68.222c71.509 40.243 71.509 40.243 114.153 28.687 42.645-11.556 42.645-11.556 71.683-68.106 29.038-56.551 29.038-56.551.093-109.572-28.945-53.022-28.945-53.022-132.111-3.487-103.166 49.534-103.166 49.534-114.246 80.884-11.081 31.35-11.081 31.35 60.428 71.594Zm-579.383-9.427C228.186 570.11 228.186 570.11 235.729 562.807c7.543-7.302 7.543-7.302 25.397-87.103 17.855-79.801 17.855-79.801-54.886-133.293-72.74-53.492-72.74-53.492-138.49-53.996C2 287.911 2 287.911 2 328.292s0 40.381 113.093 141.099Zm261.935 87.803c129.45 2.619 129.45 2.619 144.948-37.22 15.499-39.838 15.499-39.838-55.667-106.355-71.166-66.518-71.166-66.518-127.263-41.824-56.098 24.693-56.098 24.693-73.783 103.737-17.685 79.044-17.685 79.044 111.765 81.662Zm519.036-10.152c41.034 49.652 41.034 49.652 83.485 49.278 42.451-.374 42.451-.374 42.451-100.831 0-100.457 0-100.457-54.613-105.505-54.613-5.048-54.613-5.048-83.484 51.179-28.872 56.227-28.872 56.227 12.161 105.879ZM98.737 600.376c96.737 49.355 96.737 49.355 111.934 11.19 15.196-38.166 15.196-38.166-96.738-137.851C2 374.029 2 374.029 2 462.525c0 88.496 0 88.496 96.737 137.851Zm417.764 2.168c6.604 40.487 6.604 40.487 65.264 69.316 58.661 28.829 58.661 28.829 105.292 23.075 46.631-5.753 46.631-5.753 61.537-89.218 14.905-83.465 14.905-83.465-56.613-123.713-71.518-40.249-71.518-40.249-111.043-20.604-39.525 19.646-39.525 19.646-55.283 60.152-15.758 40.505-15.758 40.505-9.154 80.992Zm248.238 109.007c27.161 21.395 27.161 21.395 62.669 27.23 35.507 5.834 35.507 5.834 70.95-66.981 35.443-72.815 35.443-72.815-5.493-122.35s-40.936-49.535-83.169-38.09c-42.232 11.445-42.232 11.445-57.176 95.121-14.943 83.676-14.943 83.676 12.219 105.07Zm-666.971 5.402c95.769-23.361 95.769-23.361 96.246-43.297.477-19.936.477-19.936-95.769-69.04C2 555.512 2 555.512 2 647.913s0 92.401 95.768 69.04Zm121.503 11.629c21.758 33.974 21.758 33.974 63.208 48.778 41.449 14.804 41.449 14.804 105.532-14.519 64.083-29.324 64.083-29.324 97.629-74.156 33.546-44.831 33.546-44.831 27.018-84.855-6.529-40.023-6.529-40.023-136.651-42.656-130.122-2.632-130.122-2.632-138.093 5.086-7.972 7.717-7.972 7.717-23.687 47.187-15.716 39.47-15.716 39.47-16.215 60.316-.499 20.846-.499 20.846 21.259 54.819Zm664.3 37.242c17.125 19.32 17.125 19.32 77.777 9.661C1022 765.827 1022 765.827 1022 682.887s0-82.94-42.291-82.568c-42.29.373-42.29.373-77.777 73.279-35.487 72.906-35.487 72.906-18.361 92.226ZM519.43 824.093c63.562 88.943 63.562 88.943 80.844 80.393 17.282-8.549 17.282-8.549 27.475-104.555 10.193-96.006 10.193-96.006-47.826-124.519-58.019-28.514-58.019-28.514-91.037 15.612-33.018 44.126-33.018 44.126 30.544 133.069Zm144.208 75.347c42.008 3.998 42.008 3.998 83.463-80.019 41.456-84.017 41.456-84.017 14.585-105.182-26.871-21.166-26.871-21.166-73.329-15.434-46.457 5.732-46.457 5.732-56.591 101.185-10.135 95.452-10.135 95.452 31.872 99.45Zm-503.73-6.318c77.452-128.879 77.452-128.879 56.065-162.273-21.388-33.395-21.388-33.395-117.68-9.907C2 744.431 2 744.431 2 883.216 2 1022 2 1022 42.228 1022c40.229 0 40.229 0 117.68-128.878Zm743.002-45.468c.955 58.659.955 58.659 60.023 103.415C1022 995.825 1022 995.825 1022 882.851s0-112.974-60.022-103.416c-60.023 9.559-60.023 9.559-59.068 68.219ZM744.415 934.53c35.099 29.492 35.099 29.492 95.273.517 60.173-28.975 60.173-28.975 59.212-87.979-.96-59.004-.96-59.004-18.412-78.691-17.452-19.688-17.452-19.688-52.867-25.508-35.416-5.819-35.416-5.819-76.86 78.175-41.444 83.993-41.444 83.993-6.346 113.486Zm-395.023-79.042c22.836 60.127 22.836 60.127 116.272 75.199 93.436 15.072 93.436 15.072 103.841-.006 10.405-15.078 10.405-15.078-53.189-104.065-63.594-88.988-63.594-88.988-126.677-60.121-63.083 28.866-63.083 28.866-40.247 88.993Zm2.31 114.241c16.947-52.271 16.947-52.271-6.138-113.053s-23.085-60.782-64.032-75.407c-40.948-14.624-40.948-14.624-117.678 113.053C87.124 1022 87.124 1022 210.939 1022c123.816 0 123.816 0 140.763-52.271Zm206.071 16.089c.244-36.182.244-36.182-92.693-51.174-92.937-14.991-92.937-14.991-109.529 36.183C338.96 1022 338.96 1022 448.245 1022c109.284 0 109.284 0 109.528-36.182Zm216.762 8.803c2.592-27.38 2.592-27.38-32.962-57.255-35.554-29.875-35.554-29.875-78.66-33.977-43.107-4.103-43.107-4.103-61.157 4.827-18.051 8.93-18.051 8.93-28.891 24.639-10.841 15.708-10.841 15.708-11.088 52.427C561.53 1022 561.53 1022 666.736 1022s105.206 0 107.799-27.379Zm187.289-39.373c-60.176-45.596-60.176-45.596-120.449-16.574-60.273 29.023-60.273 29.023-62.844 56.175C775.96 1022 775.96 1022 898.98 1022s123.02 0 123.02-10.58 0-10.58-60.176-56.172Z"/></svg>